<svg width="56" height="56" viewBox="0 0 56 56" fill="none" xmlns="http://www.w3.org/2000/svg">
<path d="M49.9848 37.2182V45.1195C49.9848 47.059 48.4126 48.6312 46.4731 48.6312H4.33226C2.39282 48.6312 0.820557 47.059 0.820557 45.1195V20.5374C0.820557 18.598 2.39282 17.0257 4.33226 17.0257H46.4731C48.4126 17.0257 49.9848 18.598 49.9848 20.5374V33.7064M4.26288 13.5141C4.81938 12.8425 5.62547 12.3759 6.5603 12.2671L48.4182 7.39256C50.3446 7.16823 52.0883 8.54799 52.3126 10.4745L55.1562 34.8916C55.3805 36.818 54.0007 38.5617 52.0742 38.786L49.985 39.0293M6.08807 38.0962H13.1116M6.08807 42.4857H23.6467M16.6231 38.0962H23.6465M27.1586 38.0962H34.182M37.6936 38.0962H44.717M9.59961 30.1947H11.3555M42.0276 31.0727C42.6197 29.8825 42.9611 28.5438 42.9611 27.1219C42.9611 25.7001 42.6197 24.3613 42.0276 23.1712M38.8792 29.4874C39.2354 28.7737 39.4495 27.9755 39.4495 27.1221C39.4495 26.2686 39.2354 25.4704 38.8792 24.7567M35.7432 27.9082C35.8639 27.6714 35.9377 27.4068 35.9377 27.122C35.9377 26.8371 35.8639 26.5726 35.7432 26.3358M13.1116 33.7067H7.84398C6.87426 33.7067 6.08807 32.9206 6.08807 31.9508V28.4391C6.08807 27.4694 6.87415 26.6832 7.84398 26.6832H13.1116C14.0813 26.6832 14.8675 27.4692 14.8675 28.4391V31.9508C14.8674 32.9206 14.0813 33.7067 13.1116 33.7067Z" stroke="#423a34" stroke-width="1.64062" stroke-miterlimit="10" stroke-linecap="round" stroke-linejoin="round"/>
</svg>
