<svg width="56" height="56" viewBox="0 0 56 56" fill="none" xmlns="http://www.w3.org/2000/svg">
<g clip-path="url(#clip0_412_1181)">
<path d="M46.2414 17.6984H42.1694V13.36C42.1694 10.8739 41.234 8.50563 39.5355 6.69165C39.2198 6.35434 38.6904 6.33706 38.3533 6.65282C38.0161 6.96859 37.9987 7.49785 38.3145 7.83495C39.7216 9.33787 40.4966 11.3001 40.4966 13.36V17.6984H23.4765C18.0958 17.6984 13.7183 22.076 13.7183 27.4567V30.449H12.4082C11.8871 30.449 11.3969 30.652 11.0282 31.0206L6.58893 35.4599V30.9941C6.58893 30.31 6.22263 29.6671 5.63277 29.3164C3.18999 27.864 1.67242 25.1999 1.67242 22.3637V13.36C1.67242 8.90168 5.29951 5.27459 9.75785 5.27459H32.4112C33.4561 5.27459 34.4726 5.4707 35.4322 5.85767C35.8606 6.03015 36.348 5.82299 36.5207 5.39468C36.6934 4.96626 36.4861 4.47888 36.0577 4.30618C34.8985 3.83871 33.6715 3.60181 32.4112 3.60181H9.75785C4.37715 3.60181 -0.000366211 7.97932 -0.000366211 13.36V22.3637C-0.000366211 25.7869 1.83057 29.002 4.7779 30.7543C4.86321 30.805 4.91615 30.8969 4.91615 30.9942V35.8638C4.91615 36.4749 5.28092 37.0208 5.84551 37.2547C6.22231 37.4359 6.99165 37.4097 7.48624 36.9285L12.211 32.2036C12.2637 32.1509 12.3337 32.1219 12.4082 32.1219H13.7183V36.4602C13.7183 37.7773 13.9764 39.0554 14.4855 40.2589C14.6654 40.6843 15.1562 40.883 15.5816 40.7034C16.0071 40.5235 16.2061 40.0328 16.0262 39.6073C15.6049 38.6111 15.3912 37.5524 15.3912 36.4604V27.4568C15.3912 22.9984 19.0183 19.3713 23.4767 19.3713H46.2414C50.6998 19.3713 54.3269 22.9984 54.3269 27.4568V36.4604C54.3269 39.3076 52.871 41.8919 50.4322 43.3735C49.8575 43.7227 49.5004 44.3601 49.5004 45.0367V50.4919L44.1259 45.1173C43.7573 44.7487 43.2672 44.5457 42.7459 44.5457H23.4765C21.4475 44.5457 19.5073 43.791 18.0131 42.4207C17.6728 42.1087 17.1437 42.1314 16.8314 42.4718C16.5191 42.8123 16.5419 43.3414 16.8824 43.6536C18.6859 45.3077 21.0276 46.2186 23.4764 46.2186H42.7457C42.8191 46.2186 42.8909 46.2483 42.9428 46.3003L48.6028 51.9603C49.0399 52.2962 49.4671 52.5559 50.2434 52.2866C50.808 52.0526 51.1728 51.5067 51.1728 50.8957V45.0366C51.1728 44.9404 51.2218 44.8508 51.3006 44.803C54.2431 43.0155 55.9996 39.8968 55.9996 36.4602V27.4567C55.9996 22.076 51.6221 17.6984 46.2414 17.6984Z" fill="#423a34"/>
<path d="M32.498 37.6455C32.0076 36.9525 31.1141 36.4879 30.095 36.4879C28.5499 36.4879 27.2929 37.556 27.2929 38.8688C27.2929 40.1815 28.55 41.2496 30.095 41.2496C31.4508 41.2496 32.5845 40.4272 32.8421 39.3387C34.0758 38.819 35.0471 37.7836 35.4686 36.4736C36.6901 36.1954 37.6048 35.1013 37.6048 33.7966V30.7806C37.6048 29.5212 36.7523 28.4578 35.5943 28.1354C35.3217 26.4555 34.4962 24.9141 33.2306 23.7491C31.8184 22.4492 29.9831 21.7333 28.0627 21.7333C24.2837 21.7333 21.1229 24.4554 20.5304 28.1355C19.3728 28.4582 18.5206 29.5214 18.5206 30.7805V33.7965C18.5206 35.3107 19.7525 36.5426 21.2667 36.5426C22.7809 36.5426 24.0128 35.3107 24.0128 33.7965V30.7805C24.0128 29.5998 23.2637 28.5908 22.2159 28.2036C22.7581 25.4326 25.1805 23.4061 28.0627 23.4061C30.9084 23.4061 33.3613 25.4681 33.9074 28.2045C32.8607 28.5922 32.1127 29.6006 32.1127 30.7805V33.7965C32.1127 34.9126 32.7823 35.8746 33.7406 36.3037C33.4747 36.8751 33.0373 37.3418 32.498 37.6455ZM30.095 39.5769C29.4295 39.5769 28.9657 39.2038 28.9657 38.8689C28.9657 38.534 29.4295 38.1608 30.095 38.1608C30.7606 38.1608 31.2244 38.534 31.2244 38.8689C31.2244 39.2038 30.7605 39.5769 30.095 39.5769ZM22.34 33.7967C22.34 34.3886 21.8585 34.87 21.2667 34.87C20.6749 34.87 20.1934 34.3886 20.1934 33.7967V30.7807C20.1934 30.1889 20.6749 29.7074 21.2667 29.7074C21.8585 29.7074 22.34 30.1889 22.34 30.7807V33.7967ZM33.7854 30.7807C33.7854 30.1889 34.2669 29.7074 34.8587 29.7074C35.4506 29.7074 35.932 30.1889 35.932 30.7807V33.7967C35.932 34.3886 35.4506 34.87 34.8587 34.87C34.2669 34.87 33.7854 34.3886 33.7854 33.7967V30.7807Z" fill="#423a34"/>
<path d="M39.7781 26.4737H46.4402C46.9021 26.4737 47.2766 26.0994 47.2766 25.6374C47.2766 25.1754 46.9021 24.801 46.4402 24.801H39.7781C39.3162 24.801 38.9417 25.1754 38.9417 25.6374C38.9417 26.0994 39.3162 26.4737 39.7781 26.4737Z" fill="#423a34"/>
<path d="M39.7781 30.2181H44.9151C45.377 30.2181 45.7515 29.8437 45.7515 29.3817C45.7515 28.9197 45.377 28.5453 44.9151 28.5453H39.7781C39.3162 28.5453 38.9417 28.9197 38.9417 29.3817C38.9417 29.8437 39.3162 30.2181 39.7781 30.2181Z" fill="#423a34"/>
<path d="M8.22812 15.7888C8.91682 15.7888 9.47511 15.2305 9.47511 14.5418C9.47511 13.8531 8.91682 13.2948 8.22812 13.2948C7.53943 13.2948 6.98114 13.8531 6.98114 14.5418C6.98114 15.2305 7.53943 15.7888 8.22812 15.7888Z" fill="#423a34"/>
<path d="M12.0046 15.7888C12.6932 15.7888 13.2515 15.2305 13.2515 14.5418C13.2515 13.8531 12.6932 13.2948 12.0046 13.2948C11.3159 13.2948 10.7576 13.8531 10.7576 14.5418C10.7576 15.2305 11.3159 15.7888 12.0046 15.7888Z" fill="#423a34"/>
<path d="M15.7592 15.7888C16.4479 15.7888 17.0062 15.2305 17.0062 14.5418C17.0062 13.8531 16.4479 13.2948 15.7592 13.2948C15.0705 13.2948 14.5122 13.8531 14.5122 14.5418C14.5122 15.2305 15.0705 15.7888 15.7592 15.7888Z" fill="#423a34"/>
</g>
<defs>
<clipPath id="clip0_412_1181">
<rect width="56" height="56" fill="white"/>
</clipPath>
</defs>
</svg>
