<svg width="56" height="56" viewBox="0 0 56 56" fill="none" xmlns="http://www.w3.org/2000/svg">
<g clip-path="url(#clip0_413_1274)">
<path d="M53.7825 12.3563L28.3563 0.0815391C28.1309 -0.0271797 27.8684 -0.0271797 27.6431 0.0815391L2.21681 12.3563C1.93331 12.4931 1.75317 12.7802 1.75317 13.095V42.905C1.75317 43.2198 1.93331 43.5069 2.21681 43.6437L27.643 55.9185C27.7557 55.9728 27.8777 56.0001 27.9997 56.0001C28.1216 56.0001 28.2436 55.9728 28.3563 55.9185L53.7825 43.6437C54.066 43.5069 54.2462 43.2198 54.2462 42.905V13.0951C54.2462 12.7801 54.0659 12.4932 53.7825 12.3563ZM27.9997 1.73124L51.539 13.095L44.7155 16.3891C44.6722 16.3562 44.6266 16.3258 44.5765 16.3016L21.1971 5.01523L27.9997 1.73124ZM19.3445 5.94273L42.8496 17.2899L38.0355 19.6141L14.5401 8.27143L19.3445 5.94273ZM43.3996 18.8461V27.4371L38.9028 29.608V21.017L43.3996 18.8461ZM52.6055 42.3903L28.82 53.8727V25.8845L34.4936 23.1456C34.9016 22.9486 35.0726 22.4582 34.8756 22.0502C34.6787 21.6423 34.1883 21.471 33.7803 21.6681L27.9997 24.4588L25.7251 23.3607C25.317 23.1635 24.8267 23.3348 24.6297 23.7427C24.4327 24.1507 24.6038 24.6411 25.0118 24.8381L27.1794 25.8845V53.8727L3.3938 42.3901V14.4019L21.5063 23.1459C21.6213 23.2014 21.7428 23.2277 21.8623 23.2277C22.1673 23.2277 22.4602 23.0569 22.6016 22.7638C22.7986 22.3559 22.6275 21.8654 22.2195 21.6684L4.46031 13.095L12.6093 9.16098L37.2508 21.0569C37.2544 21.062 37.2585 21.0664 37.2622 21.0714V30.915C37.2622 31.1973 37.4073 31.4597 37.6464 31.6099C37.7792 31.6932 37.9307 31.7353 38.0826 31.7353C38.2043 31.7353 38.3262 31.7083 38.4392 31.6537L44.5765 28.6909C44.86 28.554 45.0402 28.267 45.0402 27.9521V18.0543L52.6055 14.402V42.3903Z" fill="#423a34"/>
<path d="M10.1635 39.2084L6.43218 37.4071C6.02399 37.2099 5.53377 37.3811 5.33679 37.7891C5.1398 38.1971 5.31087 38.6875 5.71884 38.8845L9.45016 40.6858C9.56512 40.7414 9.68663 40.7676 9.80618 40.7676C10.1111 40.7676 10.404 40.5968 10.5454 40.3037C10.7425 39.8957 10.5715 39.4054 10.1635 39.2084Z" fill="#423a34"/>
<path d="M13.5974 36.9733L6.43712 33.5167C6.02904 33.3197 5.53871 33.4907 5.34172 33.8988C5.14485 34.3068 5.31591 34.7972 5.72388 34.9942L12.8841 38.4509C12.9991 38.5063 13.1206 38.5327 13.2401 38.5327C13.5451 38.5327 13.838 38.3619 13.9794 38.0688C14.1764 37.6607 14.0053 37.1702 13.5974 36.9733Z" fill="#423a34"/>
</g>
<defs>
<clipPath id="clip0_413_1274">
<rect width="56" height="56" fill="white"/>
</clipPath>
</defs>
</svg>
