<svg width="56" height="56" viewBox="0 0 56 56" fill="none" xmlns="http://www.w3.org/2000/svg">
<g clip-path="url(#clip0_412_1253)">
<path d="M8.41982 46.6447H2.46118C2.00892 46.6447 1.64087 46.2768 1.64087 45.8244V2.84033C1.64087 2.38796 2.00892 2.02002 2.46118 2.02002H17.242V13.5358C17.242 14.1056 17.5531 14.6285 18.0537 14.9007C18.5544 15.1729 19.1624 15.1492 19.6405 14.8391L24.5929 11.6271L29.5454 14.8391C29.802 15.0055 30.0959 15.0895 30.3905 15.0895C30.645 15.0895 30.9002 15.0269 31.1322 14.9007C31.6329 14.6287 31.944 14.1056 31.944 13.5358V2.02002H46.7248C47.1772 2.02002 47.5451 2.38796 47.5451 2.84033V13.1633C47.5451 13.6164 47.9124 13.9836 48.3654 13.9836C48.8185 13.9836 49.1857 13.6164 49.1857 13.1633V2.84033C49.1857 1.48343 48.0818 0.379395 46.7248 0.379395H2.46118C1.10417 0.379395 0.000244141 1.48343 0.000244141 2.84033V45.8244C0.000244141 47.1813 1.10417 48.2853 2.46118 48.2853H8.41982C8.87285 48.2853 9.24013 47.9181 9.24013 47.465C9.24013 47.0119 8.87285 46.6447 8.41982 46.6447ZM30.3034 13.3751L25.4381 10.2195C24.9247 9.88682 24.2612 9.88671 23.7477 10.2196L18.8826 13.3751V2.02002H30.3034V13.3751Z" fill="#423a34"/>
<path d="M7.15394 35.7161C6.40002 35.7161 5.78675 36.3294 5.78675 37.0833V41.6352C5.78675 42.3891 6.40002 43.0024 7.15394 43.0024H18.1005C18.8544 43.0024 19.4677 42.3891 19.4677 41.6352V37.0833C19.4677 36.3294 18.8544 35.7161 18.1005 35.7161H7.15394ZM17.8271 41.3617H7.42738V37.3568H17.8271V41.3617Z" fill="#423a34"/>
<path d="M49.1734 26.5374C49.1808 26.4931 49.1855 26.4479 49.1855 26.4016V16.7387C49.1855 16.2856 48.8182 15.9184 48.3652 15.9184C47.9122 15.9184 47.5449 16.2856 47.5449 16.7387V25.534C45.299 24.3291 42.734 23.6446 40.0119 23.6446C38.3911 23.6446 36.7916 23.8865 35.2578 24.3636C34.8252 24.4981 34.5836 24.9579 34.7182 25.3905C34.8527 25.8231 35.3126 26.0652 35.7451 25.9301C37.1209 25.5023 38.5565 25.2854 40.0119 25.2854C47.9231 25.2854 54.3594 31.7217 54.3594 39.6329C54.3594 47.5441 47.9231 53.9804 40.0119 53.9804C32.1007 53.9804 25.6644 47.5441 25.6644 39.6329C25.6644 37.1082 26.3291 34.6259 27.5865 32.4544C28.8071 30.3464 30.557 28.5699 32.6469 27.3172C33.0355 27.0844 33.1618 26.5806 32.9288 26.192C32.6958 25.8034 32.192 25.6772 31.8034 25.9101C29.4755 27.3054 27.5263 29.2841 26.1667 31.6322C24.7648 34.0533 24.0238 36.8199 24.0238 39.6328C24.0238 42.1467 24.6079 44.5266 25.6462 46.6451H11.9946C11.5416 46.6451 11.1743 47.0123 11.1743 47.4654C11.1743 47.9186 11.5416 48.2857 11.9946 48.2857H26.5737C29.4231 52.6956 34.3822 55.6209 40.0119 55.6209C48.8278 55.6208 56 48.4486 56 39.6326C56 34.2223 53.2981 29.4317 49.1734 26.5374Z" fill="#423a34"/>
<path d="M40.4382 29.398C36.8417 29.398 33.5635 31.2866 31.7277 34.2618L31.4819 33.4488C31.3507 33.0152 30.8928 32.7698 30.4593 32.9011C30.0256 33.0321 29.7804 33.4901 29.9115 33.9237L30.7682 36.7571C30.8754 37.1116 31.2009 37.3402 31.5531 37.3402C31.6318 37.3402 31.7117 37.3287 31.7908 37.3048L34.6243 36.4482C35.0579 36.3172 35.3033 35.8593 35.1721 35.4256C35.0411 34.9919 34.5831 34.7467 34.1495 34.8778L33.0745 35.2028C34.6061 32.6581 37.3859 31.0385 40.4383 31.0385C44.0912 31.0385 47.3523 33.3549 48.5531 36.8023C48.671 37.1409 48.9883 37.353 49.3276 37.353C49.4171 37.353 49.5082 37.3382 49.5975 37.3071C50.0253 37.1582 50.2513 36.6904 50.1023 36.2626C48.6722 32.1568 44.7886 29.398 40.4382 29.398Z" fill="#423a34"/>
<path d="M39.5865 48.2257C35.9336 48.2257 32.6725 45.9094 31.4717 42.462C31.3227 42.034 30.855 41.808 30.4273 41.9571C29.9994 42.1061 29.7735 42.5739 29.9224 43.0016C31.3525 47.1077 35.2362 49.8664 39.5865 49.8664C43.183 49.8664 46.4611 47.978 48.297 45.0026L48.5428 45.8157C48.65 46.1702 48.9756 46.3988 49.3277 46.3988C49.4063 46.3988 49.4862 46.3874 49.5653 46.3635C49.999 46.2325 50.2442 45.7745 50.1132 45.3408L49.2566 42.5074C49.1254 42.0737 48.6675 41.8286 48.2339 41.9596L45.4004 42.8162C44.9668 42.9473 44.7214 43.4051 44.8526 43.8388C44.9837 44.2726 45.4418 44.5178 45.8752 44.3866L46.9503 44.0617C45.4186 46.6061 42.6388 48.2257 39.5865 48.2257Z" fill="#423a34"/>
</g>
<defs>
<clipPath id="clip0_412_1253">
<rect width="56" height="56" fill="white"/>
</clipPath>
</defs>
</svg>
